<?xml version="1.0" encoding="UTF-8" standalone="no"?>
<svg width="800" height="600" viewBox="0 0 800 600" xmlns="http://www.w3.org/2000/svg">
  <!-- 简化的世界地图轮廓 -->
  <path 
    d="M100,250 C150,220 200,240 250,230 C300,220 350,210 400,200 C450,190 500,180 550,190 C600,200 650,240 700,220 
       M150,300 C200,280 250,290 300,280 C350,270 400,260 450,270 C500,280 550,290 600,270
       M200,350 C250,340 300,330 350,340 C400,350 450,360 500,350 C550,340 600,330 650,320
       M250,400 C300,410 350,400 400,410 C450,420 500,410 550,400"
    fill="none"
    stroke="#aaaaaa"
    stroke-width="2"
    stroke-linecap="round"
  />
  
  <!-- 世界地图轮廓填充 -->
  <path 
    d="M120,250 C170,230 220,250 270,240 C320,230 370,220 420,210 C470,200 520,190 570,200 C620,210 670,250 680,230 
       L680,450 C630,440 580,430 530,440 C480,450 430,440 380,430 C330,420 280,430 230,420 C180,410 130,400 120,420 Z"
    fill="#f2f2f2"
    stroke="none"
    opacity="0.5"
  />
  
  <!-- 提示文字 -->
  <text x="400" y="300" font-family="Arial" font-size="18" fill="#777" text-anchor="middle">选择地区查看详细地图</text>
</svg> 